<svg width="373" height="25" viewBox="0 0 373 25" fill="none" xmlns="http://www.w3.org/2000/svg">
<path d="M2.3457 7.69999L33.0066 22.1L63.6676 12.5L94.3285 9.29999L124.989 4.49999L155.65 7.69999L186.311 17.3L216.972 10.9L247.633 2.89999L278.294 7.69999L308.955 14.1L339.616 18.9L370.277 9.29999" stroke="#BD57C7"/>
<path d="M2.34581 10.1C3.36522 10.1 4.19162 9.02549 4.19162 7.7C4.19162 6.37452 3.36522 5.3 2.34581 5.3C1.3264 5.3 0.5 6.37452 0.5 7.7C0.5 9.02549 1.3264 10.1 2.34581 10.1Z" fill="white" stroke="#BD57C7"/>
<path d="M33.0069 24.5C34.0264 24.5 34.8527 23.4255 34.8527 22.1C34.8527 20.7745 34.0264 19.7 33.0069 19.7C31.9875 19.7 31.1611 20.7745 31.1611 22.1C31.1611 23.4255 31.9875 24.5 33.0069 24.5Z" fill="white" stroke="#BD57C7"/>
<path d="M63.6676 14.9C64.687 14.9 65.5134 13.8255 65.5134 12.5C65.5134 11.1745 64.687 10.1 63.6676 10.1C62.6482 10.1 61.8218 11.1745 61.8218 12.5C61.8218 13.8255 62.6482 14.9 63.6676 14.9Z" fill="white" stroke="#BD57C7"/>
<path d="M94.3287 11.7C95.3481 11.7 96.1745 10.6255 96.1745 9.29999C96.1745 7.97451 95.3481 6.89999 94.3287 6.89999C93.3093 6.89999 92.4829 7.97451 92.4829 9.29999C92.4829 10.6255 93.3093 11.7 94.3287 11.7Z" fill="white" stroke="#BD57C7"/>
<path d="M124.989 6.90001C126.009 6.90001 126.835 5.82549 126.835 4.50001C126.835 3.17452 126.009 2.10001 124.989 2.10001C123.97 2.10001 123.144 3.17452 123.144 4.50001C123.144 5.82549 123.97 6.90001 124.989 6.90001Z" fill="white" stroke="#BD57C7"/>
<path d="M155.65 10.1C156.67 10.1 157.496 9.02549 157.496 7.7C157.496 6.37452 156.67 5.3 155.65 5.3C154.631 5.3 153.805 6.37452 153.805 7.7C153.805 9.02549 154.631 10.1 155.65 10.1Z" fill="white" stroke="#BD57C7"/>
<path d="M186.312 19.7C187.331 19.7 188.157 18.6255 188.157 17.3C188.157 15.9745 187.331 14.9 186.312 14.9C185.292 14.9 184.466 15.9745 184.466 17.3C184.466 18.6255 185.292 19.7 186.312 19.7Z" fill="white" stroke="#BD57C7"/>
<path d="M216.972 13.3C217.992 13.3 218.818 12.2255 218.818 10.9C218.818 9.57452 217.992 8.5 216.972 8.5C215.953 8.5 215.126 9.57452 215.126 10.9C215.126 12.2255 215.953 13.3 216.972 13.3Z" fill="white" stroke="#BD57C7"/>
<path d="M247.633 5.3C248.653 5.3 249.479 4.22548 249.479 2.9C249.479 1.57452 248.653 0.5 247.633 0.5C246.614 0.5 245.788 1.57452 245.788 2.9C245.788 4.22548 246.614 5.3 247.633 5.3Z" fill="white" stroke="#BD57C7"/>
<path d="M278.294 10.1C279.313 10.1 280.14 9.02549 280.14 7.7C280.14 6.37452 279.313 5.3 278.294 5.3C277.275 5.3 276.448 6.37452 276.448 7.7C276.448 9.02549 277.275 10.1 278.294 10.1Z" fill="white" stroke="#BD57C7"/>
<path d="M308.955 16.5C309.975 16.5 310.801 15.4255 310.801 14.1C310.801 12.7745 309.975 11.7 308.955 11.7C307.936 11.7 307.109 12.7745 307.109 14.1C307.109 15.4255 307.936 16.5 308.955 16.5Z" fill="white" stroke="#BD57C7"/>
<path d="M339.616 21.3C340.635 21.3 341.462 20.2255 341.462 18.9C341.462 17.5745 340.635 16.5 339.616 16.5C338.596 16.5 337.77 17.5745 337.77 18.9C337.77 20.2255 338.596 21.3 339.616 21.3Z" fill="white" stroke="#BD57C7"/>
<path d="M370.277 11.7C371.296 11.7 372.123 10.6255 372.123 9.29999C372.123 7.97451 371.296 6.89999 370.277 6.89999C369.258 6.89999 368.431 7.97451 368.431 9.29999C368.431 10.6255 369.258 11.7 370.277 11.7Z" fill="white" stroke="#BD57C7"/>
</svg>
