<svg width="1297" height="430" viewBox="0 0 1297 430" fill="none" xmlns="http://www.w3.org/2000/svg">
<path d="M447.25 1H289.75C284.918 1 281 4.91751 281 9.75V167.25C281 172.082 284.918 176 289.75 176H447.25C452.082 176 456 172.082 456 167.25V9.75C456 4.91751 452.082 1 447.25 1Z" fill="#DEE7EE" stroke="#89969F" stroke-width="2"/>
<path d="M438.5 9.75002H298.5C293.668 9.75002 289.75 13.6675 289.75 18.5V158.5C289.75 163.333 293.668 167.25 298.5 167.25H438.5C443.332 167.25 447.25 163.333 447.25 158.5V18.5C447.25 13.6675 443.332 9.75002 438.5 9.75002Z" fill="#B8C5D0"/>
<path fill-rule="evenodd" clip-rule="evenodd" d="M311.625 119.125C311.625 119.125 344.908 16.3125 379.437 119.125C379.437 119.125 402.22 73.1875 427.562 119.125H311.625ZM388.187 60.0625C391.812 60.0625 394.75 63.0005 394.75 66.625C394.75 70.2495 391.812 73.1875 388.187 73.1875C384.563 73.1875 381.625 70.2495 381.625 66.625C381.625 63.0005 384.563 60.0625 388.187 60.0625Z" fill="#89969F"/>
<path fill-rule="evenodd" clip-rule="evenodd" d="M427.297 34.9937L424.202 31.8875L428.844 27.25L424.204 22.6124L427.297 19.5061L431.937 24.1656L436.577 19.5061L439.672 22.6124L435.03 27.25L439.672 31.8875L436.577 34.9937L431.937 30.3344L427.297 34.9937Z" fill="#89969F"/>
<path d="M727.25 1H569.75C564.918 1 561 4.91751 561 9.75V167.25C561 172.082 564.918 176 569.75 176H727.25C732.082 176 736 172.082 736 167.25V9.75C736 4.91751 732.082 1 727.25 1Z" fill="#DEE7EE" stroke="#89969F" stroke-width="2"/>
<path d="M718.5 9.75002H578.5C573.668 9.75002 569.75 13.6675 569.75 18.5V158.5C569.75 163.333 573.668 167.25 578.5 167.25H718.5C723.332 167.25 727.25 163.333 727.25 158.5V18.5C727.25 13.6675 723.332 9.75002 718.5 9.75002Z" fill="#B8C5D0"/>
<path fill-rule="evenodd" clip-rule="evenodd" d="M591.625 119.125C591.625 119.125 624.908 16.3125 659.437 119.125C659.437 119.125 682.22 73.1875 707.562 119.125H591.625ZM668.187 60.0625C671.812 60.0625 674.75 63.0005 674.75 66.625C674.75 70.2495 671.812 73.1875 668.187 73.1875C664.563 73.1875 661.625 70.2495 661.625 66.625C661.625 63.0005 664.563 60.0625 668.187 60.0625Z" fill="#89969F"/>
<path fill-rule="evenodd" clip-rule="evenodd" d="M707.297 34.9937L704.202 31.8875L708.844 27.25L704.204 22.6124L707.297 19.5061L711.937 24.1656L716.577 19.5061L719.672 22.6124L715.03 27.25L719.672 31.8875L716.577 34.9937L711.937 30.3344L707.297 34.9937Z" fill="#89969F"/>
<path d="M1007.25 3H849.75C844.918 3 841 6.91751 841 11.75V169.25C841 174.082 844.918 178 849.75 178H1007.25C1012.08 178 1016 174.082 1016 169.25V11.75C1016 6.91751 1012.08 3 1007.25 3Z" fill="#DEE7EE" stroke="#89969F" stroke-width="2"/>
<path d="M998.5 11.75H858.5C853.668 11.75 849.75 15.6675 849.75 20.5V160.5C849.75 165.333 853.668 169.25 858.5 169.25H998.5C1003.33 169.25 1007.25 165.333 1007.25 160.5V20.5C1007.25 15.6675 1003.33 11.75 998.5 11.75Z" fill="#B8C5D0"/>
<path fill-rule="evenodd" clip-rule="evenodd" d="M871.625 121.125C871.625 121.125 904.908 18.3125 939.437 121.125C939.437 121.125 962.22 75.1875 987.562 121.125H871.625ZM948.187 62.0625C951.812 62.0625 954.75 65.0005 954.75 68.625C954.75 72.2495 951.812 75.1875 948.187 75.1875C944.563 75.1875 941.625 72.2495 941.625 68.625C941.625 65.0005 944.563 62.0625 948.187 62.0625Z" fill="#89969F"/>
<path fill-rule="evenodd" clip-rule="evenodd" d="M987.297 36.9937L984.202 33.8875L988.844 29.25L984.204 24.6124L987.297 21.5061L991.937 26.1656L996.577 21.5061L999.672 24.6124L995.03 29.25L999.672 33.8875L996.577 36.9937L991.937 32.3344L987.297 36.9937Z" fill="#89969F"/>
<path d="M1287.25 3H1129.75C1124.92 3 1121 6.91751 1121 11.75V169.25C1121 174.082 1124.92 178 1129.75 178H1287.25C1292.08 178 1296 174.082 1296 169.25V11.75C1296 6.91751 1292.08 3 1287.25 3Z" fill="#DEE7EE" stroke="#89969F" stroke-width="2"/>
<path d="M1278.5 11.75H1138.5C1133.67 11.75 1129.75 15.6675 1129.75 20.5V160.5C1129.75 165.333 1133.67 169.25 1138.5 169.25H1278.5C1283.33 169.25 1287.25 165.333 1287.25 160.5V20.5C1287.25 15.6675 1283.33 11.75 1278.5 11.75Z" fill="#B8C5D0"/>
<path fill-rule="evenodd" clip-rule="evenodd" d="M1151.62 121.125C1151.62 121.125 1184.91 18.3125 1219.44 121.125C1219.44 121.125 1242.22 75.1875 1267.56 121.125H1151.62ZM1228.19 62.0625C1231.81 62.0625 1234.75 65.0005 1234.75 68.625C1234.75 72.2495 1231.81 75.1875 1228.19 75.1875C1224.56 75.1875 1221.62 72.2495 1221.62 68.625C1221.62 65.0005 1224.56 62.0625 1228.19 62.0625Z" fill="#89969F"/>
<path fill-rule="evenodd" clip-rule="evenodd" d="M1267.3 36.9937L1264.2 33.8875L1268.84 29.25L1264.2 24.6124L1267.3 21.5061L1271.94 26.1656L1276.58 21.5061L1279.67 24.6124L1275.03 29.25L1279.67 33.8875L1276.58 36.9937L1271.94 32.3344L1267.3 36.9937Z" fill="#89969F"/>
<path d="M727.25 1H569.75C564.918 1 561 4.91751 561 9.75V167.25C561 172.082 564.918 176 569.75 176H727.25C732.082 176 736 172.082 736 167.25V9.75C736 4.91751 732.082 1 727.25 1Z" fill="#DEE7EE" stroke="#89969F" stroke-width="2"/>
<path d="M718.5 9.75002H578.5C573.668 9.75002 569.75 13.6675 569.75 18.5V158.5C569.75 163.333 573.668 167.25 578.5 167.25H718.5C723.332 167.25 727.25 163.333 727.25 158.5V18.5C727.25 13.6675 723.332 9.75002 718.5 9.75002Z" fill="#B8C5D0"/>
<path fill-rule="evenodd" clip-rule="evenodd" d="M591.625 119.125C591.625 119.125 624.908 16.3125 659.437 119.125C659.437 119.125 682.22 73.1875 707.562 119.125H591.625ZM668.187 60.0625C671.812 60.0625 674.75 63.0005 674.75 66.625C674.75 70.2495 671.812 73.1875 668.187 73.1875C664.563 73.1875 661.625 70.2495 661.625 66.625C661.625 63.0005 664.563 60.0625 668.187 60.0625Z" fill="#89969F"/>
<path fill-rule="evenodd" clip-rule="evenodd" d="M707.297 34.9937L704.202 31.8875L708.844 27.25L704.204 22.6124L707.297 19.5061L711.937 24.1656L716.577 19.5061L719.672 22.6124L715.03 27.25L719.672 31.8875L716.577 34.9937L711.937 30.3344L707.297 34.9937Z" fill="#89969F"/>
<path d="M1007.25 1H849.75C844.918 1 841 4.91751 841 9.75V167.25C841 172.082 844.918 176 849.75 176H1007.25C1012.08 176 1016 172.082 1016 167.25V9.75C1016 4.91751 1012.08 1 1007.25 1Z" fill="#DEE7EE" stroke="#89969F" stroke-width="2"/>
<path d="M998.5 9.75002H858.5C853.668 9.75002 849.75 13.6675 849.75 18.5V158.5C849.75 163.333 853.668 167.25 858.5 167.25H998.5C1003.33 167.25 1007.25 163.333 1007.25 158.5V18.5C1007.25 13.6675 1003.33 9.75002 998.5 9.75002Z" fill="#B8C5D0"/>
<path fill-rule="evenodd" clip-rule="evenodd" d="M871.625 119.125C871.625 119.125 904.908 16.3125 939.437 119.125C939.437 119.125 962.22 73.1875 987.562 119.125H871.625ZM948.187 60.0625C951.812 60.0625 954.75 63.0005 954.75 66.625C954.75 70.2495 951.812 73.1875 948.187 73.1875C944.563 73.1875 941.625 70.2495 941.625 66.625C941.625 63.0005 944.563 60.0625 948.187 60.0625Z" fill="#89969F"/>
<path fill-rule="evenodd" clip-rule="evenodd" d="M987.297 34.9937L984.202 31.8875L988.844 27.25L984.204 22.6124L987.297 19.5061L991.937 24.1656L996.577 19.5061L999.672 22.6124L995.03 27.25L999.672 31.8875L996.577 34.9937L991.937 30.3344L987.297 34.9937Z" fill="#89969F"/>
<path d="M167.25 3H9.75C4.91751 3 1 6.91751 1 11.75V169.25C1 174.082 4.91751 178 9.75 178H167.25C172.082 178 176 174.082 176 169.25V11.75C176 6.91751 172.082 3 167.25 3Z" fill="#DEE7EE" stroke="#89969F" stroke-width="2"/>
<path d="M158.5 11.75H18.5C13.6675 11.75 9.75 15.6675 9.75 20.5V160.5C9.75 165.333 13.6675 169.25 18.5 169.25H158.5C163.332 169.25 167.25 165.333 167.25 160.5V20.5C167.25 15.6675 163.332 11.75 158.5 11.75Z" fill="#B8C5D0"/>
<path fill-rule="evenodd" clip-rule="evenodd" d="M31.625 121.125C31.625 121.125 64.9078 18.3125 99.4375 121.125C99.4375 121.125 122.22 75.1875 147.562 121.125H31.625ZM108.187 62.0625C111.812 62.0625 114.75 65.0005 114.75 68.625C114.75 72.2495 111.812 75.1875 108.187 75.1875C104.563 75.1875 101.625 72.2495 101.625 68.625C101.625 65.0005 104.563 62.0625 108.187 62.0625Z" fill="#89969F"/>
<path fill-rule="evenodd" clip-rule="evenodd" d="M147.298 36.9937L144.202 33.8875L148.844 29.25L144.204 24.6124L147.298 21.5061L151.937 26.1656L156.577 21.5061L159.672 24.6124L155.03 29.25L159.672 33.8875L156.577 36.9937L151.937 32.3344L147.298 36.9937Z" fill="#89969F"/>
<path d="M447.25 3H289.75C284.918 3 281 6.91751 281 11.75V169.25C281 174.082 284.918 178 289.75 178H447.25C452.082 178 456 174.082 456 169.25V11.75C456 6.91751 452.082 3 447.25 3Z" fill="#DEE7EE" stroke="#89969F" stroke-width="2"/>
<path d="M438.5 11.75H298.5C293.668 11.75 289.75 15.6675 289.75 20.5V160.5C289.75 165.333 293.668 169.25 298.5 169.25H438.5C443.332 169.25 447.25 165.333 447.25 160.5V20.5C447.25 15.6675 443.332 11.75 438.5 11.75Z" fill="#B8C5D0"/>
<path fill-rule="evenodd" clip-rule="evenodd" d="M311.625 121.125C311.625 121.125 344.908 18.3125 379.437 121.125C379.437 121.125 402.22 75.1875 427.562 121.125H311.625ZM388.187 62.0625C391.812 62.0625 394.75 65.0005 394.75 68.625C394.75 72.2495 391.812 75.1875 388.187 75.1875C384.563 75.1875 381.625 72.2495 381.625 68.625C381.625 65.0005 384.563 62.0625 388.187 62.0625Z" fill="#89969F"/>
<path fill-rule="evenodd" clip-rule="evenodd" d="M427.297 36.9937L424.202 33.8875L428.844 29.25L424.204 24.6124L427.297 21.5061L431.937 26.1656L436.577 21.5061L439.672 24.6124L435.03 29.25L439.672 33.8875L436.577 36.9937L431.937 32.3344L427.297 36.9937Z" fill="#89969F"/>
<path d="M447.25 252H289.75C284.918 252 281 255.918 281 260.75V418.25C281 423.082 284.918 427 289.75 427H447.25C452.082 427 456 423.082 456 418.25V260.75C456 255.918 452.082 252 447.25 252Z" fill="#DEE7EE" stroke="#89969F" stroke-width="2"/>
<path d="M438.5 260.75H298.5C293.668 260.75 289.75 264.668 289.75 269.5V409.5C289.75 414.333 293.668 418.25 298.5 418.25H438.5C443.332 418.25 447.25 414.333 447.25 409.5V269.5C447.25 264.668 443.332 260.75 438.5 260.75Z" fill="#B8C5D0"/>
<path fill-rule="evenodd" clip-rule="evenodd" d="M311.625 370.125C311.625 370.125 344.908 267.313 379.437 370.125C379.437 370.125 402.22 324.188 427.562 370.125H311.625ZM388.187 311.063C391.812 311.063 394.75 314.001 394.75 317.625C394.75 321.249 391.812 324.188 388.187 324.188C384.563 324.188 381.625 321.249 381.625 317.625C381.625 314.001 384.563 311.063 388.187 311.063Z" fill="#89969F"/>
<path fill-rule="evenodd" clip-rule="evenodd" d="M427.297 285.994L424.202 282.887L428.844 278.25L424.204 273.612L427.297 270.506L431.937 275.166L436.577 270.506L439.672 273.612L435.03 278.25L439.672 282.887L436.577 285.994L431.937 281.334L427.297 285.994Z" fill="#89969F"/>
<path d="M727.25 252H569.75C564.918 252 561 255.918 561 260.75V418.25C561 423.082 564.918 427 569.75 427H727.25C732.082 427 736 423.082 736 418.25V260.75C736 255.918 732.082 252 727.25 252Z" fill="#DEE7EE" stroke="#89969F" stroke-width="2"/>
<path d="M718.5 260.75H578.5C573.668 260.75 569.75 264.668 569.75 269.5V409.5C569.75 414.333 573.668 418.25 578.5 418.25H718.5C723.332 418.25 727.25 414.333 727.25 409.5V269.5C727.25 264.668 723.332 260.75 718.5 260.75Z" fill="#B8C5D0"/>
<path fill-rule="evenodd" clip-rule="evenodd" d="M591.625 370.125C591.625 370.125 624.908 267.313 659.437 370.125C659.437 370.125 682.22 324.188 707.562 370.125H591.625ZM668.187 311.063C671.812 311.063 674.75 314.001 674.75 317.625C674.75 321.249 671.812 324.188 668.187 324.188C664.563 324.188 661.625 321.249 661.625 317.625C661.625 314.001 664.563 311.063 668.187 311.063Z" fill="#89969F"/>
<path fill-rule="evenodd" clip-rule="evenodd" d="M707.297 285.994L704.202 282.887L708.844 278.25L704.204 273.612L707.297 270.506L711.937 275.166L716.577 270.506L719.672 273.612L715.03 278.25L719.672 282.887L716.577 285.994L711.937 281.334L707.297 285.994Z" fill="#89969F"/>
<path d="M1007.25 254H849.75C844.918 254 841 257.918 841 262.75V420.25C841 425.082 844.918 429 849.75 429H1007.25C1012.08 429 1016 425.082 1016 420.25V262.75C1016 257.918 1012.08 254 1007.25 254Z" fill="#DEE7EE" stroke="#89969F" stroke-width="2"/>
<path d="M998.5 262.75H858.5C853.668 262.75 849.75 266.668 849.75 271.5V411.5C849.75 416.333 853.668 420.25 858.5 420.25H998.5C1003.33 420.25 1007.25 416.333 1007.25 411.5V271.5C1007.25 266.668 1003.33 262.75 998.5 262.75Z" fill="#B8C5D0"/>
<path fill-rule="evenodd" clip-rule="evenodd" d="M871.625 372.125C871.625 372.125 904.908 269.313 939.437 372.125C939.437 372.125 962.22 326.188 987.562 372.125H871.625ZM948.187 313.063C951.812 313.063 954.75 316.001 954.75 319.625C954.75 323.249 951.812 326.188 948.187 326.188C944.563 326.188 941.625 323.249 941.625 319.625C941.625 316.001 944.563 313.063 948.187 313.063Z" fill="#89969F"/>
<path fill-rule="evenodd" clip-rule="evenodd" d="M987.297 287.994L984.202 284.887L988.844 280.25L984.204 275.612L987.297 272.506L991.937 277.166L996.577 272.506L999.672 275.612L995.03 280.25L999.672 284.887L996.577 287.994L991.937 283.334L987.297 287.994Z" fill="#89969F"/>
<path d="M1287.25 254H1129.75C1124.92 254 1121 257.918 1121 262.75V420.25C1121 425.082 1124.92 429 1129.75 429H1287.25C1292.08 429 1296 425.082 1296 420.25V262.75C1296 257.918 1292.08 254 1287.25 254Z" fill="#DEE7EE" stroke="#89969F" stroke-width="2"/>
<path d="M1278.5 262.75H1138.5C1133.67 262.75 1129.75 266.668 1129.75 271.5V411.5C1129.75 416.333 1133.67 420.25 1138.5 420.25H1278.5C1283.33 420.25 1287.25 416.333 1287.25 411.5V271.5C1287.25 266.668 1283.33 262.75 1278.5 262.75Z" fill="#B8C5D0"/>
<path fill-rule="evenodd" clip-rule="evenodd" d="M1151.62 372.125C1151.62 372.125 1184.91 269.313 1219.44 372.125C1219.44 372.125 1242.22 326.188 1267.56 372.125H1151.62ZM1228.19 313.063C1231.81 313.063 1234.75 316.001 1234.75 319.625C1234.75 323.249 1231.81 326.188 1228.19 326.188C1224.56 326.188 1221.62 323.249 1221.62 319.625C1221.62 316.001 1224.56 313.063 1228.19 313.063Z" fill="#89969F"/>
<path fill-rule="evenodd" clip-rule="evenodd" d="M1267.3 287.994L1264.2 284.887L1268.84 280.25L1264.2 275.612L1267.3 272.506L1271.94 277.166L1276.58 272.506L1279.67 275.612L1275.03 280.25L1279.67 284.887L1276.58 287.994L1271.94 283.334L1267.3 287.994Z" fill="#89969F"/>
<path d="M727.25 252H569.75C564.918 252 561 255.918 561 260.75V418.25C561 423.082 564.918 427 569.75 427H727.25C732.082 427 736 423.082 736 418.25V260.75C736 255.918 732.082 252 727.25 252Z" fill="#DEE7EE" stroke="#89969F" stroke-width="2"/>
<path d="M718.5 260.75H578.5C573.668 260.75 569.75 264.668 569.75 269.5V409.5C569.75 414.333 573.668 418.25 578.5 418.25H718.5C723.332 418.25 727.25 414.333 727.25 409.5V269.5C727.25 264.668 723.332 260.75 718.5 260.75Z" fill="#B8C5D0"/>
<path fill-rule="evenodd" clip-rule="evenodd" d="M591.625 370.125C591.625 370.125 624.908 267.313 659.437 370.125C659.437 370.125 682.22 324.188 707.562 370.125H591.625ZM668.187 311.063C671.812 311.063 674.75 314.001 674.75 317.625C674.75 321.249 671.812 324.188 668.187 324.188C664.563 324.188 661.625 321.249 661.625 317.625C661.625 314.001 664.563 311.063 668.187 311.063Z" fill="#89969F"/>
<path fill-rule="evenodd" clip-rule="evenodd" d="M707.297 285.994L704.202 282.887L708.844 278.25L704.204 273.612L707.297 270.506L711.937 275.166L716.577 270.506L719.672 273.612L715.03 278.25L719.672 282.887L716.577 285.994L711.937 281.334L707.297 285.994Z" fill="#89969F"/>
<path d="M1007.25 252H849.75C844.918 252 841 255.918 841 260.75V418.25C841 423.082 844.918 427 849.75 427H1007.25C1012.08 427 1016 423.082 1016 418.25V260.75C1016 255.918 1012.08 252 1007.25 252Z" fill="#DEE7EE" stroke="#89969F" stroke-width="2"/>
<path d="M998.5 260.75H858.5C853.668 260.75 849.75 264.668 849.75 269.5V409.5C849.75 414.333 853.668 418.25 858.5 418.25H998.5C1003.33 418.25 1007.25 414.333 1007.25 409.5V269.5C1007.25 264.668 1003.33 260.75 998.5 260.75Z" fill="#B8C5D0"/>
<path fill-rule="evenodd" clip-rule="evenodd" d="M871.625 370.125C871.625 370.125 904.908 267.313 939.437 370.125C939.437 370.125 962.22 324.188 987.562 370.125H871.625ZM948.187 311.063C951.812 311.063 954.75 314.001 954.75 317.625C954.75 321.249 951.812 324.188 948.187 324.188C944.563 324.188 941.625 321.249 941.625 317.625C941.625 314.001 944.563 311.063 948.187 311.063Z" fill="#89969F"/>
<path fill-rule="evenodd" clip-rule="evenodd" d="M987.297 285.994L984.202 282.887L988.844 278.25L984.204 273.612L987.297 270.506L991.937 275.166L996.577 270.506L999.672 273.612L995.03 278.25L999.672 282.887L996.577 285.994L991.937 281.334L987.297 285.994Z" fill="#89969F"/>
<path d="M167.25 254H9.75C4.91751 254 1 257.918 1 262.75V420.25C1 425.082 4.91751 429 9.75 429H167.25C172.082 429 176 425.082 176 420.25V262.75C176 257.918 172.082 254 167.25 254Z" fill="#DEE7EE" stroke="#89969F" stroke-width="2"/>
<path d="M158.5 262.75H18.5C13.6675 262.75 9.75 266.668 9.75 271.5V411.5C9.75 416.333 13.6675 420.25 18.5 420.25H158.5C163.332 420.25 167.25 416.333 167.25 411.5V271.5C167.25 266.668 163.332 262.75 158.5 262.75Z" fill="#B8C5D0"/>
<path fill-rule="evenodd" clip-rule="evenodd" d="M31.625 372.125C31.625 372.125 64.9078 269.313 99.4375 372.125C99.4375 372.125 122.22 326.188 147.562 372.125H31.625ZM108.187 313.063C111.812 313.063 114.75 316.001 114.75 319.625C114.75 323.249 111.812 326.188 108.187 326.188C104.563 326.188 101.625 323.249 101.625 319.625C101.625 316.001 104.563 313.063 108.187 313.063Z" fill="#89969F"/>
<path fill-rule="evenodd" clip-rule="evenodd" d="M147.298 287.994L144.202 284.887L148.844 280.25L144.204 275.612L147.298 272.506L151.937 277.166L156.577 272.506L159.672 275.612L155.03 280.25L159.672 284.887L156.577 287.994L151.937 283.334L147.298 287.994Z" fill="#89969F"/>
<path d="M447.25 254H289.75C284.918 254 281 257.918 281 262.75V420.25C281 425.082 284.918 429 289.75 429H447.25C452.082 429 456 425.082 456 420.25V262.75C456 257.918 452.082 254 447.25 254Z" fill="#DEE7EE" stroke="#89969F" stroke-width="2"/>
<path d="M438.5 262.75H298.5C293.668 262.75 289.75 266.668 289.75 271.5V411.5C289.75 416.333 293.668 420.25 298.5 420.25H438.5C443.332 420.25 447.25 416.333 447.25 411.5V271.5C447.25 266.668 443.332 262.75 438.5 262.75Z" fill="#B8C5D0"/>
<path fill-rule="evenodd" clip-rule="evenodd" d="M311.625 372.125C311.625 372.125 344.908 269.313 379.437 372.125C379.437 372.125 402.22 326.188 427.562 372.125H311.625ZM388.187 313.063C391.812 313.063 394.75 316.001 394.75 319.625C394.75 323.249 391.812 326.188 388.187 326.188C384.563 326.188 381.625 323.249 381.625 319.625C381.625 316.001 384.563 313.063 388.187 313.063Z" fill="#89969F"/>
<path fill-rule="evenodd" clip-rule="evenodd" d="M427.297 287.994L424.202 284.887L428.844 280.25L424.204 275.612L427.297 272.506L431.937 277.166L436.577 272.506L439.672 275.612L435.03 280.25L439.672 284.887L436.577 287.994L431.937 283.334L427.297 287.994Z" fill="#89969F"/>
</svg>
