<svg width="82" height="82" viewBox="0 0 82 82" fill="none" xmlns="http://www.w3.org/2000/svg">
<path d="M77 1H5C2.79086 1 1 2.79086 1 5V77C1 79.2091 2.79086 81 5 81H77C79.2091 81 81 79.2091 81 77V5C81 2.79086 79.2091 1 77 1Z" fill="#DEE7EE" stroke="#89969F" stroke-width="2"/>
<path d="M73 5H9C6.79086 5 5 6.79086 5 9V73C5 75.2091 6.79086 77 9 77H73C75.2091 77 77 75.2091 77 73V9C77 6.79086 75.2091 5 73 5Z" fill="#B8C5D0"/>
<path fill-rule="evenodd" clip-rule="evenodd" d="M15 55C15 55 30.215 8 46 55C46 55 56.415 34 68 55H15ZM50 28C51.6569 28 53 29.3431 53 31C53 32.6569 51.6569 34 50 34C48.3431 34 47 32.6569 47 31C47 29.3431 48.3431 28 50 28Z" fill="#89969F"/>
<path fill-rule="evenodd" clip-rule="evenodd" d="M67.8789 16.54L66.4639 15.12L68.5859 13L66.4649 10.88L67.8789 9.45996L69.9999 11.59L72.1209 9.45996L73.5359 10.88L71.4139 13L73.5359 15.12L72.1209 16.54L69.9999 14.41L67.8789 16.54Z" fill="#89969F"/>
</svg>
